<?xml version="1.0" encoding="UTF-8"?>
<!-- The Best Svg Icon site in the world: iconSvg.co, Visit us! https://iconsvg.co -->
<svg fill="#000000" width="800px" height="800px" version="1.1" viewBox="144 144 512 512" xmlns="http://www.w3.org/2000/svg">
 <path d="m242.56 195.32c-26.086 0-47.234 21.148-47.234 47.234 0 20.75 13.383 38.375 31.988 44.715 5.543 73.414 56.848 134.02 125.45 153.43v116.73c0 5.9648 3.3711 11.418 8.7031 14.082l62.977 31.488c4.8789 2.4414 10.676 2.1797 15.32-0.6875 4.6406-2.8672 7.4648-7.9375 7.4648-13.395v-148.22c68.609-19.41 119.91-80.02 125.45-153.43 18.605-6.3398 31.988-23.965 31.988-44.715 0-26.086-21.148-47.234-47.234-47.234zm298.27 94.465h-281.66c6.7891 61.406 52.824 111.01 112.48 123.12 7.3359 1.4922 12.609 7.9414 12.609 15.43v119.37l31.488 15.746v-135.12c0-7.4883 5.2734-13.938 12.613-15.43 59.648-12.105 105.68-61.711 112.47-123.12zm-314.02-47.23c0-8.6953 7.0508-15.746 15.746-15.746h314.88c8.6953 0 15.746 7.0508 15.746 15.746 0 8.6953-7.0508 15.742-15.746 15.742h-314.88c-8.6953 0-15.746-7.0469-15.746-15.742z" fill-rule="evenodd"/>
</svg>