<?xml version="1.0" standalone="no"?>
<!DOCTYPE svg PUBLIC "-//W3C//DTD SVG 20010904//EN"
 "http://www.w3.org/TR/2001/REC-SVG-20010904/DTD/svg10.dtd">
<svg version="1.0" xmlns="http://www.w3.org/2000/svg"
 width="712.000000pt" height="542.000000pt" viewBox="0 0 712.000000 542.000000"
 preserveAspectRatio="xMidYMid meet">

<g transform="translate(0.000000,542.000000) scale(0.100000,-0.100000)"
fill="#000000" stroke="none">
<path d="M254 5174 c3 -21 8 -84 11 -139 12 -201 68 -471 147 -715 300 -922
1043 -1760 1836 -2071 122 -47 302 -95 395 -105 l64 -6 7 854 c5 622 3 875 -5
929 -52 339 -313 689 -676 907 -322 194 -995 349 -1636 378 l-148 7 5 -39z"/>
<path d="M6770 5203 c-653 -47 -1239 -189 -1550 -374 -323 -192 -579 -504
-656 -803 -33 -128 -34 -173 -28 -1030 l7 -858 61 6 c88 9 251 50 364 92 597
223 1176 745 1571 1418 255 433 423 968 449 1424 l7 132 -90 -2 c-49 -1 -110
-3 -135 -5z"/>
<path d="M3460 4295 c-36 -8 -103 -33 -150 -56 -67 -33 -102 -60 -170 -128
-139 -139 -200 -283 -200 -476 0 -264 139 -489 375 -605 108 -54 179 -70 301
-70 184 0 340 64 470 194 81 81 134 166 172 275 23 67 26 92 26 201 0 144 -13
201 -76 321 -76 149 -212 265 -377 322 -71 25 -105 31 -196 33 -71 2 -133 -2
-175 -11z"/>
<path d="M4553 1823 c-35 -266 -171 -532 -344 -670 -156 -124 -324 -177 -559
-175 -109 0 -153 5 -231 25 -333 86 -565 346 -665 747 -13 52 -24 108 -24 123
0 16 -4 27 -9 25 -4 -1 -153 -145 -330 -318 -214 -210 -321 -322 -321 -336 0
-28 83 -191 151 -294 259 -395 617 -639 1078 -737 116 -25 145 -27 361 -27
260 -1 364 13 553 75 444 145 812 493 1006 951 l20 47 -330 323 c-181 178
-333 324 -337 326 -4 1 -13 -37 -19 -85z"/>
</g>
</svg>
